<?xml version="1.0" standalone="no"?>
<!DOCTYPE svg PUBLIC "-//W3C//DTD SVG 20010904//EN"
 "http://www.w3.org/TR/2001/REC-SVG-20010904/DTD/svg10.dtd">
<svg version="1.0" xmlns="http://www.w3.org/2000/svg"
 width="396.000000pt" height="301.000000pt" viewBox="0 0 396.000000 301.000000"
 preserveAspectRatio="xMidYMid meet">

<g transform="translate(0.000000,301.000000) scale(0.100000,-0.100000)"
fill="#000000" stroke="none">
<path d="M1350 2846 c-128 -23 -202 -46 -285 -88 -105 -53 -155 -88 -240 -173
-93 -92 -138 -154 -124 -171 28 -34 295 -234 312 -234 3 0 21 28 41 63 57 103
172 195 296 238 55 20 86 23 200 23 151 1 208 -12 323 -70 90 -46 156 -47 215
-4 23 16 49 44 58 62 32 61 17 156 -32 200 -58 51 -184 107 -314 139 -109 27
-341 34 -450 15z"/>
<path d="M2353 2795 c-41 -17 -89 -85 -98 -134 -15 -88 45 -178 131 -200 23
-6 126 -11 228 -11 l186 0 0 -657 c0 -445 4 -671 11 -698 24 -88 94 -136 198
-135 91 1 150 36 182 105 17 38 19 81 19 712 l0 671 218 4 c238 3 254 7 306
68 72 87 46 219 -54 270 -38 19 -61 20 -667 20 -513 -1 -634 -3 -660 -15z"/>
<path d="M186 2738 c6 -15 29 -33 234 -185 157 -116 177 -131 352 -271 321
-255 501 -369 748 -470 168 -70 340 -101 483 -87 l77 7 10 37 c5 21 13 59 16
85 l7 47 -59 -8 c-32 -5 -142 -8 -244 -7 -246 2 -343 24 -628 148 -89 38 -233
132 -382 250 -50 39 -113 88 -140 109 -28 21 -50 43 -50 48 0 5 17 9 38 9 35
1 36 2 18 15 -11 8 -36 15 -56 15 -36 0 -120 48 -120 69 0 13 57 31 123 38
112 12 45 44 -110 53 -108 6 -114 8 -169 44 -50 34 -122 66 -145 66 -5 0 -6
-6 -3 -12z"/>
<path d="M1431 2434 c-84 -22 -183 -80 -246 -142 -62 -61 -110 -135 -100 -152
12 -19 142 -79 247 -114 291 -97 557 -96 712 1 34 22 38 28 32 56 -10 51 -77
159 -131 212 -59 58 -166 118 -251 140 -72 19 -191 18 -263 -1z"/>
<path d="M607 2237 c-38 -124 -47 -190 -47 -333 0 -288 89 -508 279 -687 189
-177 412 -259 706 -259 183 0 376 43 482 108 111 68 133 97 133 179 0 53 -16
88 -57 127 -63 60 -116 62 -232 8 -122 -56 -189 -71 -311 -72 -216 -1 -384 80
-488 237 -74 109 -104 209 -105 350 -1 61 1 121 5 135 6 22 -3 33 -78 95 -47
39 -120 100 -162 137 -42 37 -81 68 -87 68 -5 0 -23 -42 -38 -93z"/>
<path d="M1030 1997 c0 -41 260 -265 422 -365 113 -70 302 -145 393 -157 l51
-7 62 66 c34 37 62 70 62 74 0 4 -37 8 -83 8 -45 1 -120 11 -167 22 -76 18
-114 31 -225 75 -107 43 -389 208 -482 283 l-33 27 0 -26z"/>
<path d="M1020 1904 c0 -64 17 -137 52 -221 61 -147 210 -266 379 -303 66 -15
234 -9 251 8 9 9 8 13 -3 16 -173 61 -303 148 -469 315 -69 69 -144 149 -167
176 l-42 50 -1 -41z"/>
<path d="M1674 795 c-19 -13 -19 -15 0 -67 41 -118 151 -360 166 -368 35 -19
57 0 91 78 95 223 137 335 132 348 -3 9 -16 14 -32 12 -23 -3 -32 -19 -95
-170 -38 -92 -72 -165 -75 -162 -3 3 -36 78 -73 166 -36 89 -73 165 -81 169
-8 5 -22 3 -33 -6z"/>
<path d="M2525 799 c-43 -12 -112 -74 -136 -122 -47 -91 -13 -224 72 -283 94
-65 241 -49 311 34 13 16 32 54 42 85 39 124 -29 253 -153 287 -43 12 -94 12
-136 -1z m139 -74 c51 -24 79 -71 84 -137 4 -46 0 -64 -18 -93 -44 -71 -129
-95 -206 -59 -48 23 -89 108 -80 167 18 110 123 168 220 122z"/>
<path d="M3010 798 c-67 -25 -99 -112 -65 -178 18 -35 45 -50 142 -79 76 -23
100 -44 88 -82 -9 -28 -65 -50 -107 -43 -18 4 -55 18 -81 32 -45 24 -49 25
-65 9 -22 -23 -9 -44 47 -76 55 -30 171 -34 218 -6 58 34 79 105 48 164 -15
30 -47 48 -135 76 -75 23 -100 41 -100 69 0 56 85 74 161 35 32 -16 44 -18 55
-8 62 51 -106 123 -206 87z"/>
<path d="M735 778 c-3 -13 -4 -111 -3 -218 l3 -195 160 0 160 0 0 25 0 25
-127 3 -128 3 0 64 0 65 109 0 c101 0 110 2 116 20 3 11 3 24 0 30 -4 6 -53
10 -116 10 l-109 0 0 65 0 65 124 0 c129 0 145 6 130 45 -5 12 -32 15 -160 15
-151 0 -154 0 -159 -22z"/>
<path d="M1174 787 c-2 -7 -3 -105 -2 -217 l3 -205 30 0 30 0 3 153 c1 83 6
152 10 152 4 -1 43 -49 87 -107 154 -202 154 -203 186 -203 l29 0 -2 218 -3
217 -24 3 c-13 2 -28 -2 -32 -10 -5 -7 -9 -76 -9 -152 l0 -139 -21 19 c-12 10
-36 39 -53 64 -17 25 -62 84 -100 133 -58 73 -74 87 -98 87 -16 0 -31 -6 -34
-13z"/>
<path d="M2180 580 l0 -220 29 0 c17 0 31 6 35 16 3 9 6 102 6 208 0 203 -3
216 -47 216 l-23 0 0 -220z"/>
</g>
</svg>
